<svg width="25" height="25" viewBox="0 0 25 25" fill="none" xmlns="http://www.w3.org/2000/svg">
<g id="Categories">
<path id="Vector" d="M6.01746 9.68447V10.4345V9.68447ZM4.33325 18.9476H3.58325H4.33325ZM4.80175 12.4672C4.47829 12.2085 4.00632 12.2609 3.74758 12.5844C3.48884 12.9078 3.5413 13.3798 3.86476 13.6386L4.80175 12.4672ZM6.78715 15.0158L7.25579 14.4303L7.25564 14.4302L6.78715 15.0158ZM10.1345 14.8306L10.6648 15.3609L10.6649 15.3608L10.1345 14.8306ZM11.9122 14.0941V13.3441V14.0941ZM13.6899 14.8306L13.1595 15.3608L13.1596 15.361L13.6899 14.8306ZM17.0373 15.0158L17.5057 15.6015L17.5057 15.6015L17.0373 15.0158ZM19.9596 13.6386C20.2831 13.3798 20.3356 12.9078 20.0768 12.5844C19.8181 12.2609 19.3461 12.2085 19.0226 12.4672L19.9596 13.6386ZM11.9122 8.84236V9.59236V8.84236ZM11.3 5.2912L11.8492 5.8019L11.8496 5.80152L11.3 5.2912ZM11.9122 4.63184L12.4618 4.12152C12.3199 3.96868 12.1208 3.88184 11.9122 3.88184C11.7036 3.88184 11.5045 3.96868 11.3626 4.12152L11.9122 4.63184ZM12.5244 5.2912L11.9748 5.80152L11.9752 5.8019L12.5244 5.2912ZM5.08325 11.3687C5.08325 11.1209 5.18168 10.8833 5.35688 10.7081L4.29622 9.64743C3.83971 10.1039 3.58325 10.7231 3.58325 11.3687H5.08325ZM5.35688 10.7081C5.53207 10.5329 5.76969 10.4345 6.01746 10.4345V8.93447C5.37187 8.93447 4.75272 9.19093 4.29622 9.64743L5.35688 10.7081ZM6.01746 10.4345H17.8069V8.93447H6.01746V10.4345ZM17.8069 10.4345C18.0547 10.4345 18.2923 10.5329 18.4675 10.7081L19.5282 9.64743C19.0717 9.19093 18.4525 8.93447 17.8069 8.93447V10.4345ZM18.4675 10.7081C18.6427 10.8833 18.7411 11.1209 18.7411 11.3687H20.2411C20.2411 10.7231 19.9847 10.1039 19.5282 9.64743L18.4675 10.7081ZM18.7411 11.3687V18.9476H20.2411V11.3687H18.7411ZM18.7411 18.9476C18.7411 19.1954 18.6427 19.433 18.4675 19.6082L19.5282 20.6689C19.9847 20.2124 20.2411 19.5932 20.2411 18.9476H18.7411ZM18.4675 19.6082C18.2923 19.7834 18.0547 19.8818 17.8069 19.8818V21.3818C18.4525 21.3818 19.0717 21.1254 19.5282 20.6689L18.4675 19.6082ZM17.8069 19.8818H6.01746V21.3818H17.8069V19.8818ZM6.01746 19.8818C5.76969 19.8818 5.53207 19.7834 5.35688 19.6082L4.29622 20.6689C4.75272 21.1254 5.37187 21.3818 6.01746 21.3818V19.8818ZM5.35688 19.6082C5.18168 19.433 5.08325 19.1954 5.08325 18.9476H3.58325C3.58325 19.5932 3.83971 20.2124 4.29622 20.6689L5.35688 19.6082ZM5.08325 18.9476V11.3687H3.58325V18.9476H5.08325ZM3.86476 13.6386L6.31865 15.6015L7.25564 14.4302L4.80175 12.4672L3.86476 13.6386ZM6.31851 15.6014C7.6166 16.6403 9.4894 16.5363 10.6648 15.3609L9.60419 14.3002C8.9691 14.9353 7.95685 14.9914 7.25579 14.4303L6.31851 15.6014ZM10.6649 15.3608C10.8287 15.197 11.0231 15.0671 11.2372 14.9784L10.663 13.5926C10.267 13.7567 9.90719 13.9972 9.60411 14.3003L10.6649 15.3608ZM11.2372 14.9784C11.4512 14.8897 11.6805 14.8441 11.9122 14.8441V13.3441C11.4835 13.3441 11.0591 13.4285 10.663 13.5926L11.2372 14.9784ZM11.9122 14.8441C12.1439 14.8441 12.3732 14.8897 12.5872 14.9784L13.1614 13.5926C12.7653 13.4285 12.3409 13.3441 11.9122 13.3441V14.8441ZM12.5872 14.9784C12.8013 15.0671 12.9957 15.197 13.1595 15.3608L14.2203 14.3003C13.9172 13.9972 13.5574 13.7567 13.1614 13.5926L12.5872 14.9784ZM13.1596 15.361C13.7276 15.9288 14.4849 16.2672 15.2867 16.3116L15.3696 14.8139C14.9363 14.7899 14.527 14.607 14.2201 14.3002L13.1596 15.361ZM15.2867 16.3116C16.0886 16.356 16.8786 16.1032 17.5057 15.6015L16.5688 14.4302C16.2299 14.7012 15.8029 14.8379 15.3696 14.8139L15.2867 16.3116ZM17.5057 15.6015L19.9596 13.6386L19.0226 12.4672L16.5688 14.4302L17.5057 15.6015ZM11.9122 8.09236C11.6644 8.09236 11.4268 7.99394 11.2516 7.81874L10.191 8.8794C10.6475 9.3359 11.2666 9.59236 11.9122 9.59236V8.09236ZM11.2516 7.81874C11.0764 7.64354 10.978 7.40592 10.978 7.15815H9.47799C9.47799 7.80374 9.73445 8.4229 10.191 8.8794L11.2516 7.81874ZM10.978 7.15815C10.978 6.99102 11.0408 6.80436 11.1993 6.56728C11.364 6.32091 11.5847 6.08644 11.8492 5.8019L10.7507 4.7805C10.5134 5.03576 10.1981 5.36592 9.95227 5.73365C9.70023 6.11068 9.47799 6.5876 9.47799 7.15815H10.978ZM11.8496 5.80152L12.4618 5.14215L11.3626 4.12152L10.7504 4.78089L11.8496 5.80152ZM11.3626 5.14215L11.9748 5.80152L13.074 4.78089L12.4618 4.12152L11.3626 5.14215ZM11.9752 5.8019C12.2397 6.08644 12.4604 6.32091 12.6251 6.56728C12.7836 6.80436 12.8464 6.99102 12.8464 7.15815H14.3464C14.3464 6.5876 14.1242 6.11068 13.8721 5.73365C13.6263 5.36592 13.311 5.03576 13.0737 4.7805L11.9752 5.8019ZM12.8464 7.15815C12.8464 7.40592 12.748 7.64354 12.5728 7.81874L13.6334 8.8794C14.0899 8.4229 14.3464 7.80374 14.3464 7.15815H12.8464ZM12.5728 7.81874C12.3976 7.99394 12.16 8.09236 11.9122 8.09236V9.59236C12.5578 9.59236 13.1769 9.3359 13.6334 8.8794L12.5728 7.81874Z" fill="#232323"/>
</g>
</svg>
