<svg width="22" height="21" viewBox="0 0 22 21" fill="none" xmlns="http://www.w3.org/2000/svg">
<g id="Group">
<path id="Vector" d="M8.07457 19.1365C8.55155 19.1365 8.93821 18.7498 8.93821 18.2728C8.93821 17.7958 8.55155 17.4092 8.07457 17.4092C7.5976 17.4092 7.21094 17.7958 7.21094 18.2728C7.21094 18.7498 7.5976 19.1365 8.07457 19.1365Z" fill="#232323" stroke="#232323" stroke-width="2" stroke-linecap="round" stroke-linejoin="round"/>
<path id="Vector_2" d="M17.5746 19.1365C18.0515 19.1365 18.4382 18.7498 18.4382 18.2728C18.4382 17.7958 18.0515 17.4092 17.5746 17.4092C17.0976 17.4092 16.7109 17.7958 16.7109 18.2728C16.7109 18.7498 17.0976 19.1365 17.5746 19.1365Z" fill="#232323" stroke="#232323" stroke-width="2" stroke-linecap="round" stroke-linejoin="round"/>
<path id="Vector_3" d="M1.16602 1H4.62056L6.93511 12.5641C7.01408 12.9617 7.23039 13.3189 7.54617 13.5731C7.86195 13.8273 8.25707 13.9623 8.66238 13.9545H17.0569C17.4622 13.9623 17.8574 13.8273 18.1731 13.5731C18.4889 13.3189 18.7052 12.9617 18.7842 12.5641L20.166 5.31818H5.4842" stroke="#232323" stroke-width="2" stroke-linecap="round" stroke-linejoin="round"/>
</g>
</svg>
