<svg width="17" height="17" viewBox="0 0 17 17" fill="none" xmlns="http://www.w3.org/2000/svg">
<rect width="17" height="17" fill="#1E1E1E"/>
<g id="NEW SCREENS - JULY 7, 2023 (UPDATED AUG 2, 2023)">
<path d="M-487 -1236C-487 -1237.1 -486.105 -1238 -485 -1238H18896C18897.1 -1238 18898 -1237.1 18898 -1236V7754C18898 7755.1 18897.1 7756 18896 7756H-485C-486.105 7756 -487 7755.1 -487 7754V-1236Z" fill="black"/>
<g id="Discover Page" clip-path="url(#clip0_260_6456)">
<rect width="1440" height="1540" transform="translate(-199 -558)" fill="#F5F5F5"/>
<g id="Frame 1000000991">
<path d="M-199 -104C-199 -117.255 -188.255 -128 -175 -128H1217C1230.25 -128 1241 -117.255 1241 -104V982H-199V-104Z" fill="white"/>
<g id="Frame 1000000910">
<g id="Frame 17" clip-path="url(#clip1_260_6456)">
<g id="Frame 890">
<g id="Group 157" filter="url(#filter0_d_260_6456)">
<path id="unsplash:ZhQCZjr9fHo" d="M-16.1666 5.64C-16.1666 -12.1805 -12.3472 -16 5.47337 -16H12.1934C30.0139 -16 33.8334 -12.1805 33.8334 5.64V12.36C33.8334 30.1805 30.0139 34 12.1934 34H5.47337C-12.3472 34 -16.1666 30.1805 -16.1666 12.36V5.64Z" fill="#FDFDFD"/>
<g id="Categories">
<path id="Vector (Stroke)" fill-rule="evenodd" clip-rule="evenodd" d="M0.833374 8.63184C0.833374 4.21345 4.41499 0.631836 8.83337 0.631836C9.23504 0.631836 9.56065 0.957447 9.56065 1.35911C9.56065 1.76077 9.23504 2.08638 8.83337 2.08638C5.21831 2.08638 2.28792 5.01677 2.28792 8.63184C2.28792 12.2469 5.21831 15.1773 8.83337 15.1773C12.4484 15.1773 15.3788 12.2469 15.3788 8.63184V8.63097C15.3801 7.55469 15.1151 6.49482 14.6074 5.54582C14.4179 5.19166 14.5514 4.75095 14.9056 4.56148C15.2597 4.372 15.7004 4.50551 15.8899 4.85967C16.5108 6.02027 16.8349 7.31645 16.8334 8.6327L16.1061 8.63184H16.8334C16.8334 8.63212 16.8334 8.63241 16.8334 8.6327C16.8329 13.0507 13.2515 16.6318 8.83337 16.6318C4.41499 16.6318 0.833374 13.0502 0.833374 8.63184ZM11.3683 1.09681C11.7691 0.796191 12.2895 0.631836 12.8334 0.631836C13.3773 0.631836 13.8976 0.796191 14.2984 1.09681C14.6995 1.39763 15.0152 1.86864 15.0152 2.45002C15.0152 3.03139 14.6995 3.5024 14.2984 3.80322C13.8976 4.10384 13.3773 4.2682 12.8334 4.2682C12.5828 4.2682 12.3373 4.23332 12.1061 4.16631V8.63184C12.1061 9.06162 12.0215 9.48719 11.857 9.88425C11.6925 10.2813 11.4514 10.6421 11.1475 10.946C10.8436 11.2499 10.4829 11.491 10.0858 11.6554C9.68873 11.8199 9.26315 11.9046 8.83337 11.9046C7.96539 11.9046 7.13296 11.5598 6.51921 10.946C5.90545 10.3322 5.56065 9.49982 5.56065 8.63184C5.56065 7.76385 5.90545 6.93142 6.51921 6.31767C7.13296 5.70391 7.96539 5.35911 8.83337 5.35911C9.26315 5.35911 9.68873 5.44376 10.0858 5.60823C10.2843 5.69046 10.4738 5.79183 10.6516 5.91063V2.2682C10.6516 2.13463 10.6876 2.00947 10.7504 1.9019C10.8742 1.57038 11.1025 1.29621 11.3683 1.09681ZM10.6516 8.63184C10.6516 8.39307 10.6045 8.15664 10.5132 7.93605C10.4218 7.71546 10.2879 7.51502 10.119 7.34619C9.95019 7.17735 9.74975 7.04343 9.52916 6.95205C9.30857 6.86068 9.07214 6.81365 8.83337 6.81365C8.35116 6.81365 7.8887 7.00521 7.54773 7.34619C7.20675 7.68716 7.01519 8.14962 7.01519 8.63184C7.01519 9.11405 7.20675 9.57651 7.54773 9.91749C7.8887 10.2585 8.35116 10.45 8.83337 10.45C9.07214 10.45 9.30857 10.403 9.52916 10.3116C9.74975 10.2202 9.95019 10.0863 10.119 9.91749C10.2879 9.74865 10.4218 9.54822 10.5132 9.32762C10.6045 9.10703 10.6516 8.8706 10.6516 8.63184ZM12.1061 2.45002C12.1061 2.47119 12.1158 2.54563 12.2411 2.63963C12.3667 2.73383 12.5736 2.81365 12.8334 2.81365C13.0931 2.81365 13.3 2.73383 13.4256 2.63963C13.5509 2.54563 13.5606 2.47119 13.5606 2.45002C13.5606 2.42885 13.5509 2.3544 13.4256 2.2604C13.3 2.16621 13.0931 2.08638 12.8334 2.08638C12.5736 2.08638 12.3667 2.16621 12.2411 2.2604C12.1158 2.3544 12.1061 2.42885 12.1061 2.45002Z" fill="#232323"/>
</g>
</g>
</g>
</g>
</g>
</g>
</g>
<path d="M-485 -1237H18896V-1239H-485V-1237ZM18897 -1236V7754H18899V-1236H18897ZM18896 7755H-485V7757H18896V7755ZM-486 7754V-1236H-488V7754H-486ZM-485 7755C-485.552 7755 -486 7754.55 -486 7754H-488C-488 7755.66 -486.657 7757 -485 7757V7755ZM18897 7754C18897 7754.55 18896.6 7755 18896 7755V7757C18897.7 7757 18899 7755.66 18899 7754H18897ZM18896 -1237C18896.6 -1237 18897 -1236.55 18897 -1236H18899C18899 -1237.66 18897.7 -1239 18896 -1239V-1237ZM-485 -1239C-486.657 -1239 -488 -1237.66 -488 -1236H-486C-486 -1236.55 -485.552 -1237 -485 -1237V-1239Z" fill="white" fill-opacity="0.1"/>
</g>
<defs>
<filter id="filter0_d_260_6456" x="-36.1666" y="-28" width="90" height="90" filterUnits="userSpaceOnUse" color-interpolation-filters="sRGB">
<feFlood flood-opacity="0" result="BackgroundImageFix"/>
<feColorMatrix in="SourceAlpha" type="matrix" values="0 0 0 0 0 0 0 0 0 0 0 0 0 0 0 0 0 0 127 0" result="hardAlpha"/>
<feOffset dy="8"/>
<feGaussianBlur stdDeviation="10"/>
<feColorMatrix type="matrix" values="0 0 0 0 0.439216 0 0 0 0 0.564706 0 0 0 0 0.690196 0 0 0 0.12 0"/>
<feBlend mode="normal" in2="BackgroundImageFix" result="effect1_dropShadow_260_6456"/>
<feBlend mode="normal" in="SourceGraphic" in2="effect1_dropShadow_260_6456" result="shape"/>
</filter>
<clipPath id="clip0_260_6456">
<rect width="1440" height="1540" fill="white" transform="translate(-199 -558)"/>
</clipPath>
<clipPath id="clip1_260_6456">
<rect width="1300" height="74" fill="white" transform="translate(-129 -16)"/>
</clipPath>
</defs>
</svg>
