<svg width="25" height="25" viewBox="0 0 25 25" fill="none" xmlns="http://www.w3.org/2000/svg">
<g id="Categories">
<path id="Vector" d="M5.66663 13.4318C5.66663 15.3414 6.4252 17.1727 7.77546 18.523C9.12572 19.8733 10.9571 20.6318 12.8666 20.6318C12.8666 18.7223 12.1081 16.8909 10.7578 15.5407C9.40753 14.1904 7.57618 13.4318 5.66663 13.4318ZM7.61863 15.3838C9.14663 15.9518 10.3466 17.1518 10.9146 18.6798C10.1604 18.4 9.47545 17.9607 8.9066 17.3919C8.33776 16.823 7.89843 16.1381 7.61863 15.3838ZM12.8666 20.6318C14.7762 20.6318 16.6075 19.8733 17.9578 18.523C19.3081 17.1727 20.0666 15.3414 20.0666 13.4318C18.1571 13.4318 16.3257 14.1904 14.9755 15.5407C13.6252 16.8909 12.8666 18.7223 12.8666 20.6318ZM14.8026 18.6878C15.0768 17.9238 15.5166 17.2298 16.0906 16.6558C16.6646 16.0818 17.3585 15.642 18.1226 15.3678C17.8411 16.1277 17.3987 16.8178 16.8257 17.3909C16.2526 17.9639 15.5625 18.4063 14.8026 18.6878ZM12.8666 14.2318C14.1397 14.2318 15.3606 13.7261 16.2607 12.8259C17.1609 11.9258 17.6666 10.7049 17.6666 9.43184V5.43184C17.0762 5.42684 16.49 5.53267 15.9386 5.74384C15.4986 5.92784 15.1066 6.19984 14.7786 6.54384L12.8666 4.63184L10.9546 6.54384C10.6266 6.19984 10.2346 5.92784 9.79463 5.74384C9.24321 5.53267 8.65707 5.42684 8.06663 5.43184V9.43184C8.06663 10.7049 8.57234 11.9258 9.47251 12.8259C10.3727 13.7261 11.5936 14.2318 12.8666 14.2318ZM9.66663 7.51984L10.9226 8.83984L12.8666 6.89584L14.8106 8.83984L16.0666 7.51984V9.43184C16.0666 10.2805 15.7295 11.0945 15.1294 11.6946C14.5293 12.2947 13.7153 12.6318 12.8666 12.6318C12.0179 12.6318 11.204 12.2947 10.6039 11.6946C10.0038 11.0945 9.66663 10.2805 9.66663 9.43184V7.51984Z" fill="#232323"/>
</g>
</svg>
