<svg width="20" height="20" viewBox="0 0 20 20" fill="none" xmlns="http://www.w3.org/2000/svg">
<path id="Vector" d="M19.5856 9.1H10.4156V11.83H16.9256C16.5956 15.64 13.4256 17.27 10.4256 17.27C6.59562 17.27 3.23563 14.25 3.23563 10C3.23563 5.9 6.43563 2.73 10.4356 2.73C13.5256 2.73 15.3356 4.7 15.3356 4.7L17.2356 2.72C17.2356 2.72 14.7956 0 10.3356 0C4.65563 0 0.265625 4.8 0.265625 10C0.265625 15.05 4.39563 20 10.4856 20C15.8356 20 19.7356 16.33 19.7356 10.91C19.7356 9.76 19.5856 9.1 19.5856 9.1Z" fill="#6F10DD"/>
</svg>
