<svg width="16" height="18" viewBox="0 0 16 18" fill="none" xmlns="http://www.w3.org/2000/svg">
<g id="Group">
<path id="Vector" d="M7.9 9.8C9.22548 9.8 10.3 8.72548 10.3 7.4C10.3 6.07452 9.22548 5 7.9 5C6.57452 5 5.5 6.07452 5.5 7.4C5.5 8.72548 6.57452 9.8 7.9 9.8Z" fill="white" stroke="#585858" stroke-width="2" stroke-linecap="round" stroke-linejoin="round"/>
<path id="Vector_2" d="M7.9 1C6.20261 1 4.57475 1.67428 3.37452 2.87452C2.17428 4.07475 1.5 5.70261 1.5 7.4C1.5 8.9136 1.8216 9.904 2.7 11L7.9 17L13.1 11C13.9784 9.904 14.3 8.9136 14.3 7.4C14.3 5.70261 13.6257 4.07475 12.4255 2.87452C11.2253 1.67428 9.59739 1 7.9 1V1Z" stroke="#585858" stroke-width="2" stroke-linecap="round" stroke-linejoin="round"/>
</g>
</svg>
