<svg width="166" height="40" viewBox="0 0 166 40" fill="none" xmlns="http://www.w3.org/2000/svg">
<path d="M48.8184 5.66949H52.9921C55.2947 5.66949 56.4333 5.91153 57.4381 6.58902C58.8067 7.53334 59.5825 9.17896 59.5825 11.1876C59.5825 13.3173 58.6976 15.1554 57.2336 16.0283C56.3212 16.56 55.2495 16.7544 52.9459 16.7544H51.943V20.251C51.943 22.0781 50.5439 23.5601 48.8184 23.5601V5.66949ZM52.8554 13.5832C53.7668 13.5832 54.4964 13.5107 54.9988 13.3411C55.8837 13.0753 56.4353 12.2768 56.4353 11.2581C56.4353 10.1203 55.8876 9.27419 54.9762 9.00736C54.4924 8.88833 54.0175 8.84369 52.9921 8.84369H51.943V13.5832H52.8554ZM73.7633 23.5551H70.9808V21.8123C69.7724 23.2883 68.5641 23.8695 66.7855 23.8695C63.0906 23.8695 60.4231 20.9413 60.4231 16.8992C60.4271 12.8114 63.1181 9.83563 66.8572 9.83563C68.6821 9.83563 69.9366 10.4645 70.9867 11.9405V10.155H73.7633V23.5551ZM63.4789 16.9716C63.4789 19.3195 65.0068 20.9165 67.2151 20.9165C69.4047 20.9165 70.8874 19.2947 70.8874 16.8992C70.8874 14.4789 69.3359 12.7847 67.1247 12.7847C65.0127 12.7847 63.4829 14.5513 63.4829 16.9716H63.4789ZM76.2311 10.1471H79.0136V11.4535C79.811 10.1957 80.4491 9.83563 81.7498 9.83563H81.9779V12.9305C80.1531 12.9781 79.2643 14.0216 79.2643 16.1047V23.5591H76.2311V10.1471ZM84.3042 13.0753H82.8215V10.1471H84.3042V5.66949C85.9757 5.66949 87.3374 7.1078 87.3374 8.88138V10.1471H89.1612V13.0753H87.3374V23.5551H84.3042V13.0753ZM94.1363 22.3003L89.5034 10.1471H92.9702L95.7753 18.8355L98.835 10.1471H102.324L95.0271 28.0317H91.7608L94.1363 22.3003ZM104.008 5.66949H107.474C110.051 5.66949 111.1 5.88772 112.126 6.61382C113.289 7.43613 113.951 8.81592 113.951 10.4377C113.951 12.131 113.426 13.0515 112.083 13.8014C113.201 14.2854 113.702 14.6485 114.181 15.3498C114.682 16.0759 114.956 17.1164 114.956 18.2264C114.956 20.1111 114.112 21.7359 112.653 22.6306C111.627 23.2605 110.304 23.5511 108.503 23.5511H104.01L104.008 5.66949ZM108.137 12.5674C110.03 12.5674 110.827 12.0099 110.827 10.7274C110.827 9.49341 110.03 8.91213 108.41 8.91213H107.132V12.5674H108.137ZM108.684 20.3839C110.873 20.3839 111.808 19.7064 111.808 18.1332C111.808 16.56 110.782 15.8101 108.615 15.8101H107.133V20.3839H108.684ZM129.846 16.8784C129.846 20.7261 126.836 23.8725 123.142 23.8725C119.424 23.8725 116.415 20.7261 116.415 16.8784C116.415 12.9572 119.402 9.83563 123.187 9.83563C126.856 9.83563 129.846 13.0029 129.846 16.8784ZM119.47 16.8536C119.47 19.1043 121.111 20.9205 123.118 20.9205C125.149 20.9205 126.79 19.1053 126.79 16.8794C126.79 14.5801 125.149 12.7886 123.073 12.7886C121.111 12.7847 119.47 14.6247 119.47 16.8506V16.8536ZM144.554 16.8784C144.554 20.7261 141.544 23.8725 137.85 23.8725C134.133 23.8725 131.122 20.7261 131.122 16.8784C131.122 12.9572 134.11 9.83563 137.896 9.83563C141.568 9.83563 144.554 13.0029 144.554 16.8784ZM134.178 16.8536C134.178 19.1043 135.82 20.9205 137.827 20.9205C139.857 20.9205 141.499 19.1053 141.499 16.8794C141.499 14.5801 139.857 12.7886 137.782 12.7886C135.821 12.7847 134.179 14.6247 134.179 16.8506L134.178 16.8536ZM146.422 5.66949C148.094 5.66949 149.455 7.1078 149.455 8.88138V16.4637L153.486 10.1471H157.113L152.598 16.7058L157.842 23.5551H153.76L149.45 17.2861V23.5551H146.422V5.66949ZM159.607 10.1471H162.388V11.4535C163.187 10.1957 163.825 9.83563 165.126 9.83563H165.354V12.9305C163.529 12.9781 162.639 14.0216 162.639 16.1047V23.5591H159.607V10.1471Z" fill="#232323"/>
<path d="M48.8184 35.5157H49.2337L49.8087 34.0805H51.6403L52.2101 35.5157H52.6413L50.9482 31.2561H50.5062L48.8184 35.5157ZM49.9578 33.6943L50.7298 31.7403L51.4859 33.6943H49.9578Z" fill="#E96A27"/>
<path d="M53.5318 35.5157H55.5551V35.1295H53.9258V31.2561H53.5318V35.5157Z" fill="#E96A27"/>
<path d="M56.4172 35.5157H58.4405V35.1295H56.8112V31.2561H56.4172V35.5157Z" fill="#E96A27"/>
<path d="M62.1743 35.5157H62.5683V34.092L63.942 31.2561H63.5108L62.366 33.6424L61.2479 31.2561H60.8112L62.1743 34.092V35.5157Z" fill="#E96A27"/>
<path d="M66.476 31.1812C65.3046 31.1812 64.3675 32.1611 64.3675 33.3888C64.3675 34.5935 65.3099 35.5906 66.4493 35.5906C67.5888 35.5906 68.5259 34.5992 68.5259 33.3888C68.5259 32.1841 67.5888 31.1812 66.476 31.1812ZM66.428 31.5731C67.3705 31.5731 68.1265 32.3859 68.1265 33.3946C68.1265 34.3802 67.3651 35.1987 66.4493 35.1987C65.5282 35.1987 64.7668 34.3802 64.7668 33.3888C64.7668 32.4089 65.5282 31.5731 66.428 31.5731Z" fill="#E96A27"/>
<path d="M69.5915 31.2561V33.9133C69.5915 34.4609 69.6714 34.7837 69.8684 35.0661C70.1027 35.4004 70.4914 35.5906 70.928 35.5906C71.3699 35.5906 71.7586 35.4004 71.9929 35.0661C72.1899 34.7837 72.2697 34.4609 72.2697 33.9133V31.2561H71.8757V33.9133C71.8757 34.2995 71.8172 34.5935 71.6947 34.7952C71.5456 35.0431 71.2528 35.1987 70.928 35.1987C70.6085 35.1987 70.3157 35.0431 70.1666 34.7952C70.0441 34.5935 69.9855 34.2995 69.9855 33.9133V31.2561H69.5915Z" fill="#E96A27"/>
<path d="M75.4091 35.5157H75.8032V31.7691L78.1459 35.5157H78.5399V31.2561H78.1459V34.7894L75.9416 31.2561H75.4091V35.5157Z" fill="#E96A27"/>
<path d="M79.7765 35.5157H81.9275V35.1295H80.1705V33.5559H81.869V33.1698H80.1705V31.6423H81.9275V31.2561H79.7765V35.5157Z" fill="#E96A27"/>
<path d="M83.057 35.5157H85.2081V35.1295H83.4511V33.5559H85.1496V33.1698H83.4511V31.6423H85.2081V31.2561H83.057V35.5157Z" fill="#E96A27"/>
<path d="M86.3376 35.5157H87.3972C87.9669 35.5157 88.3716 35.4235 88.7123 35.2217C89.33 34.8528 89.6601 34.213 89.6601 33.4003C89.6601 32.6164 89.3673 31.9997 88.8082 31.6192C88.4248 31.3541 87.9989 31.2561 87.2641 31.2561H86.3376V35.5157ZM86.7316 35.1295V31.6423H87.2801C87.8551 31.6423 88.2225 31.7172 88.51 31.8959C88.9839 32.1841 89.2608 32.7317 89.2608 33.383C89.2608 33.9248 89.0691 34.4033 88.7283 34.7203C88.4089 35.0142 87.9989 35.1295 87.2801 35.1295H86.7316Z" fill="#E96A27"/>
<path d="M92.6284 35.5157H93.0224V33.5675H94.5665V33.1813H93.0224V31.6423H94.6251V31.2561H92.6284V35.5157Z" fill="#E96A27"/>
<path d="M97.5767 31.1812C96.4053 31.1812 95.4682 32.1611 95.4682 33.3888C95.4682 34.5935 96.4107 35.5906 97.5501 35.5906C98.6895 35.5906 99.6267 34.5992 99.6267 33.3888C99.6267 32.1841 98.6896 31.1812 97.5767 31.1812ZM97.5288 31.5731C98.4712 31.5731 99.2273 32.3859 99.2273 33.3946C99.2273 34.3802 98.4659 35.1987 97.5501 35.1987C96.629 35.1987 95.8676 34.3802 95.8676 33.3888C95.8676 32.4089 96.629 31.5731 97.5288 31.5731Z" fill="#E96A27"/>
<path d="M102.199 33.9248C102.955 33.8384 103.36 33.383 103.36 32.6222C103.36 32.1034 103.163 31.7057 102.795 31.4751C102.545 31.3253 102.204 31.2561 101.667 31.2561H100.692V35.5157H101.086V31.6423H101.64C102.055 31.6423 102.332 31.6884 102.545 31.7979C102.811 31.9363 102.961 32.2245 102.961 32.6164C102.961 33.0833 102.769 33.383 102.391 33.5041C102.204 33.5617 101.965 33.5848 101.486 33.5848L102.811 35.5157H103.301L102.199 33.9248Z" fill="#E96A27"/>
<path d="M106.255 35.5157H108.406V35.1295H106.649V33.5559H108.348V33.1698H106.649V31.6423H108.406V31.2561H106.255V35.5157Z" fill="#E96A27"/>
<path d="M110.803 35.5157H111.186L112.816 31.2561H112.39L111 34.9854L109.616 31.2561H109.184L110.803 35.5157Z" fill="#E96A27"/>
<path d="M113.7 35.5157H115.851V35.1295H114.094V33.5559H115.793V33.1698H114.094V31.6423H115.851V31.2561H113.7V35.5157Z" fill="#E96A27"/>
<path d="M116.981 35.5157H117.375V31.7691L119.718 35.5157H120.112V31.2561H119.718V34.7894L117.513 31.2561H116.981V35.5157Z" fill="#E96A27"/>
<path d="M121.881 35.5157H122.275V31.6423H123.174V31.2561H120.981V31.6423H121.881V35.5157Z" fill="#E96A27"/>
<path d="M123.754 34.3226C123.791 35.0892 124.275 35.5906 124.984 35.5906C125.665 35.5906 126.171 35.0546 126.171 34.3283C126.171 33.9537 126.027 33.6193 125.782 33.4176C125.617 33.2908 125.452 33.2101 125.048 33.0775C124.691 32.9623 124.574 32.9104 124.467 32.8124C124.355 32.7029 124.281 32.5127 124.281 32.3167C124.281 31.8844 124.568 31.5731 124.962 31.5731C125.362 31.5731 125.639 31.8729 125.665 32.334H126.075C126.059 31.6423 125.617 31.1812 124.973 31.1812C124.339 31.1812 123.881 31.6596 123.881 32.3282C123.881 32.6222 123.983 32.9046 124.158 33.0833C124.313 33.2447 124.43 33.3081 124.893 33.4637C125.202 33.5617 125.372 33.6424 125.505 33.7404C125.676 33.873 125.772 34.092 125.772 34.3514C125.772 34.8413 125.447 35.1987 124.994 35.1987C124.749 35.1987 124.515 35.0892 124.371 34.899C124.254 34.7491 124.201 34.5935 124.174 34.3226H123.754Z" fill="#E96A27"/>
<path d="M128.676 35.5157H129.091L129.666 34.0805H131.498L132.067 35.5157H132.499L130.805 31.2561H130.363L128.676 35.5157ZM129.815 33.6943L130.587 31.7403L131.343 33.6943H129.815Z" fill="#E96A27"/>
<path d="M133.389 35.5157H133.783V31.7691L136.126 35.5157H136.52V31.2561H136.126V34.7894L133.921 31.2561H133.389V35.5157Z" fill="#E96A27"/>
<path d="M137.756 35.5157H138.816C139.386 35.5157 139.79 35.4235 140.131 35.2217C140.749 34.8528 141.079 34.213 141.079 33.4003C141.079 32.6164 140.786 31.9997 140.227 31.6192C139.843 31.3541 139.418 31.2561 138.683 31.2561H137.756V35.5157ZM138.15 35.1295V31.6423H138.699C139.274 31.6423 139.641 31.7172 139.929 31.8959C140.403 32.1841 140.679 32.7317 140.679 33.383C140.679 33.9248 140.488 34.4033 140.147 34.7203C139.828 35.0142 139.418 35.1295 138.699 35.1295H138.15Z" fill="#E96A27"/>
<path d="M144.047 35.5157H144.441V33.7923H145.197C145.73 33.7923 146.017 33.7173 146.257 33.5271C146.512 33.3254 146.651 32.9738 146.651 32.5472C146.651 32.0573 146.48 31.6711 146.182 31.4809C145.937 31.3195 145.639 31.2561 145.133 31.2561H144.047V35.5157ZM144.441 33.4061V31.6423H145C145.389 31.6423 145.634 31.6711 145.809 31.7345C146.092 31.8325 146.251 32.1265 146.251 32.5415C146.251 32.8758 146.134 33.1409 145.927 33.262C145.762 33.3657 145.533 33.4061 145.171 33.4061H144.441Z" fill="#E96A27"/>
<path d="M146.956 35.5157H147.371L147.946 34.0805H149.778L150.347 35.5157H150.779L149.085 31.2561H148.643L146.956 35.5157ZM148.095 33.6943L148.867 31.7403L149.623 33.6943H148.095Z" fill="#E96A27"/>
<path d="M153.176 33.9248C153.932 33.8384 154.337 33.383 154.337 32.6222C154.337 32.1034 154.14 31.7057 153.772 31.4751C153.522 31.3253 153.181 31.2561 152.643 31.2561H151.669V35.5157H152.063V31.6423H152.617C153.032 31.6423 153.309 31.6884 153.522 31.7979C153.788 31.9363 153.937 32.2245 153.937 32.6164C153.937 33.0833 153.746 33.383 153.367 33.5041C153.181 33.5617 152.942 33.5848 152.462 33.5848L153.788 35.5157H154.278L153.176 33.9248Z" fill="#E96A27"/>
<path d="M155.841 35.5157H156.235V31.6423H157.135V31.2561H154.941V31.6423H155.841V35.5157Z" fill="#E96A27"/>
<path d="M158.001 35.5157H158.395V31.2561H158.001V35.5157Z" fill="#E96A27"/>
<path d="M159.628 35.5157H161.78V35.1295H160.022V33.5559H161.721V33.1698H160.022V31.6423H161.78V31.2561H159.628V35.5157Z" fill="#E96A27"/>
<path d="M162.622 34.3226C162.659 35.0892 163.143 35.5906 163.851 35.5906C164.533 35.5906 165.039 35.0546 165.039 34.3283C165.039 33.9537 164.895 33.6193 164.65 33.4176C164.485 33.2908 164.32 33.2101 163.915 33.0775C163.559 32.9623 163.441 32.9104 163.335 32.8124C163.223 32.7029 163.149 32.5127 163.149 32.3167C163.149 31.8844 163.436 31.5731 163.83 31.5731C164.23 31.5731 164.506 31.8729 164.533 32.334H164.943C164.927 31.6423 164.485 31.1812 163.841 31.1812C163.207 31.1812 162.749 31.6596 162.749 32.3282C162.749 32.6222 162.85 32.9046 163.026 33.0833C163.181 33.2447 163.298 33.3081 163.761 33.4637C164.07 33.5617 164.24 33.6424 164.373 33.7404C164.544 33.873 164.64 34.092 164.64 34.3514C164.64 34.8413 164.315 35.1987 163.862 35.1987C163.617 35.1987 163.383 35.0892 163.239 34.899C163.122 34.7491 163.069 34.5935 163.042 34.3226H162.622Z" fill="#E96A27"/>
<rect width="40.315" height="40" rx="5.29134" fill="#232323"/>
<g clip-path="url(#clip0_6165_4994)">
<path d="M26.2217 7.9748C24.4014 6.97244 22.3329 6.61426 18.1539 6.61426H10.583V33.071C13.7132 33.071 16.251 30.8752 16.251 28.1664V11.3043H18.1539C20.0157 11.3043 20.8847 11.3758 21.7533 11.5549C23.4083 11.9485 24.4014 13.2018 24.4014 14.8844C24.4014 16.388 23.4083 17.5694 21.7948 17.9633C21.7908 17.9644 21.7867 17.9657 21.7827 17.9668C20.9252 18.2003 20.326 18.98 20.326 19.8765V22.9752C23.0163 22.8764 24.5252 22.5669 25.8493 21.937C28.4974 20.6483 30.1106 17.9273 30.1106 14.7768C30.1106 11.8055 28.7042 9.37109 26.2217 7.9748Z" fill="url(#paint0_linear_6165_4994)"/>
<path d="M20.3748 11.3478C21.7832 11.2109 25.6956 11.2259 27.3908 13.979C28.5391 15.8441 28.5522 18.6421 27.6283 20.2676C26.4351 22.3666 23.1642 22.9686 20.3846 22.975C20.3518 22.975 20.3252 22.9485 20.3252 22.9155V19.891C20.3252 19.0197 20.8751 18.2451 21.6924 17.9646L22.4406 17.7082C23.0981 17.4828 23.6584 17.0266 23.9975 16.4151C24.1108 16.2105 24.2113 15.9868 24.2842 15.7512C24.6644 14.5234 24.1074 12.9089 23.281 12.2695C23.005 12.056 22.3472 11.6838 21.9984 11.6127C21.9967 11.6123 21.9954 11.612 21.9937 11.612L20.3748 11.3478Z" fill="url(#paint1_linear_6165_4994)"/>
</g>
<defs>
<linearGradient id="paint0_linear_6165_4994" x1="6.06538" y1="26.6811" x2="26.115" y2="7.04528" gradientUnits="userSpaceOnUse">
<stop stop-color="#6F10DD"/>
<stop offset="0.5246" stop-color="#F64D47"/>
<stop offset="0.8813" stop-color="#FDAB45"/>
</linearGradient>
<linearGradient id="paint1_linear_6165_4994" x1="19.0004" y1="20.8878" x2="26.8907" y2="13.1604" gradientUnits="userSpaceOnUse">
<stop stop-color="#D84034"/>
<stop offset="0.8813" stop-color="#FC892D"/>
</linearGradient>
<clipPath id="clip0_6165_4994">
<rect width="19.5276" height="26.4567" fill="white" transform="translate(10.583 6.61426)"/>
</clipPath>
</defs>
</svg>
