<svg width="25" height="25" viewBox="0 0 25 25" fill="none" xmlns="http://www.w3.org/2000/svg">
<g id="Categories">
<path id="Vector" d="M4.7008 13.4203C4.6054 13.4868 4.53812 13.5865 4.51199 13.6999C4.48587 13.8132 4.50276 13.9323 4.5594 14.0339L5.71197 16.0296C5.83025 16.2341 6.1015 16.3186 6.31405 16.2145L9.83402 14.5097V20.6318H11.6127V13.647L15.2331 11.8924L12.9031 7.85483L4.7008 13.4203ZM20.0231 6.43546C19.5438 5.60665 18.755 5.00206 17.8302 4.75458C16.9053 4.50711 15.92 4.63699 15.0908 5.11569C14.2816 5.58259 13.7497 6.32429 13.4892 7.15137L16.1358 11.7368C16.9816 11.9253 17.8905 11.8346 18.7015 11.3677C19.5308 10.8889 20.1359 10.1002 20.3838 9.17527C20.6316 8.2503 20.5019 7.26476 20.0231 6.43546Z" fill="#232323"/>
</g>
</svg>
