<svg width="22" height="18" viewBox="0 0 22 18" fill="none" xmlns="http://www.w3.org/2000/svg">
<path id="Vector" d="M21.4591 2.5C20.6891 2.85 19.8591 3.08 18.9991 3.19C19.8791 2.66 20.5591 1.82 20.8791 0.81C20.0491 1.31 19.1291 1.66 18.1591 1.86C17.3691 1 16.2591 0.5 14.9991 0.5C12.6491 0.5 10.7291 2.42 10.7291 4.79C10.7291 5.13 10.7691 5.46 10.8391 5.77C7.27906 5.59 4.10906 3.88 1.99906 1.29C1.62906 1.92 1.41906 2.66 1.41906 3.44C1.41906 4.93 2.16906 6.25 3.32906 7C2.61906 7 1.95906 6.8 1.37906 6.5C1.37906 6.5 1.37906 6.5 1.37906 6.53C1.37906 8.61 2.85906 10.35 4.81906 10.74C4.45906 10.84 4.07906 10.89 3.68906 10.89C3.41906 10.89 3.14906 10.86 2.88906 10.81C3.42906 12.5 4.99906 13.76 6.88906 13.79C5.42906 14.95 3.57906 15.63 1.55906 15.63C1.21906 15.63 0.879063 15.61 0.539062 15.57C2.43906 16.79 4.69906 17.5 7.11906 17.5C14.9991 17.5 19.3291 10.96 19.3291 5.29C19.3291 5.1 19.3291 4.92 19.3191 4.73C20.1591 4.13 20.8791 3.37 21.4591 2.5Z" fill="#6F10DD"/>
</svg>
