<svg width="25" height="24" viewBox="0 0 25 24" fill="none" xmlns="http://www.w3.org/2000/svg">
<g id="Warning">
<path id="Vector" d="M12.8341 5.99018L20.3641 19.0002H5.30411L12.8341 5.99018ZM3.57411 18.0002C2.80411 19.3302 3.76411 21.0002 5.30411 21.0002H20.3641C21.9041 21.0002 22.8641 19.3302 22.0941 18.0002L14.5641 4.99018C13.7941 3.66018 11.8741 3.66018 11.1041 4.99018L3.57411 18.0002ZM11.8341 11.0002V13.0002C11.8341 13.5502 12.2841 14.0002 12.8341 14.0002C13.3841 14.0002 13.8341 13.5502 13.8341 13.0002V11.0002C13.8341 10.4502 13.3841 10.0002 12.8341 10.0002C12.2841 10.0002 11.8341 10.4502 11.8341 11.0002ZM11.8341 16.0002H13.8341V18.0002H11.8341V16.0002Z" fill="#232323"/>
</g>
</svg>
