<svg width="16" height="16" viewBox="0 0 16 16" fill="none" xmlns="http://www.w3.org/2000/svg">
<path id="Vector" d="M6.23444 0C6.14957 0 6.06818 0.0337142 6.00817 0.0937258C5.94816 0.153737 5.91444 0.235131 5.91444 0.32V0.96C5.91444 1.04487 5.94816 1.12626 6.00817 1.18627C6.06818 1.24629 6.14957 1.28 6.23444 1.28H6.71444V2.1272C3.25268 2.5256 0.554443 5.47344 0.554443 9.04C0.554443 12.8773 3.67716 16 7.51444 16C11.3517 16 14.4744 12.8773 14.4744 9.04C14.4755 7.72661 14.1026 6.44006 13.3992 5.33088L14.0773 4.78192L14.3794 5.15504C14.4058 5.18772 14.4384 5.21486 14.4754 5.23494C14.5123 5.25501 14.5528 5.26761 14.5946 5.27202C14.6364 5.27644 14.6786 5.27257 14.719 5.26065C14.7593 5.24874 14.7968 5.229 14.8295 5.20256L15.3271 4.79968C15.393 4.74624 15.4349 4.66882 15.4437 4.58446C15.4526 4.50009 15.4275 4.41567 15.3741 4.34976L13.7632 2.36C13.7368 2.32732 13.7042 2.30018 13.6673 2.2801C13.6304 2.26003 13.5898 2.24743 13.548 2.24302C13.5063 2.2386 13.464 2.24247 13.4237 2.25438C13.3834 2.2663 13.3458 2.28604 13.3132 2.31248L12.8156 2.71536C12.7497 2.7688 12.7077 2.84622 12.6989 2.93058C12.6901 3.01495 12.7151 3.09937 12.7685 3.16528L13.0708 3.5384L12.3956 4.08464C11.3176 3.02256 9.89572 2.3096 8.31444 2.12752V1.28H8.79444C8.87931 1.28 8.96071 1.24629 9.02072 1.18627C9.08073 1.12626 9.11444 1.04487 9.11444 0.96V0.32C9.11444 0.235131 9.08073 0.153737 9.02072 0.0937258C8.96071 0.0337142 8.87931 0 8.79444 0L6.23444 0ZM7.51444 3.2C10.7464 3.2 13.3544 5.808 13.3544 9.04C13.3544 12.272 10.7464 14.88 7.51444 14.88C4.28244 14.88 1.67444 12.272 1.67444 9.04C1.67444 5.808 4.28244 3.2 7.51444 3.2ZM7.51476 4.39088L7.51444 9.04L11.2319 11.8315C11.7504 11.141 12.0664 10.3196 12.1443 9.45957C12.2223 8.59953 12.0591 7.73477 11.6732 6.96224C11.2872 6.18974 10.6937 5.54 9.95925 5.08585C9.22477 4.63171 8.37831 4.39112 7.51476 4.39104V4.39088Z" fill="#585858"/>
</svg>
